<svg viewBox="0 0 182 257" fill="none" xmlns="http://www.w3.org/2000/svg">
<path d="M111.24 0.379883L0.389893 64.3799V192.38L111.24 256.38L222.09 192.38V64.3799L111.24 0.379883Z" fill="white"/>
<path d="M222.09 64.3801L187.39 44.3501L154.02 63.6201L188.71 83.6501L222.09 64.3801Z" fill="#E0684B"/>
<path d="M33.7699 83.6499L144.62 19.6499L111.24 0.379883L0.389893 64.3799L33.7699 83.6499Z" fill="#E0684B"/>
<path d="M76.55 148.41L111.24 168.44L145.94 148.41L111.24 128.38L76.55 148.41Z" fill="#E0684B"/>
<path d="M188.71 83.6499V173.1L111.24 217.83L33.7699 173.1V83.6499L0.389893 64.3799V192.37L111.24 256.37L222.09 192.37V64.3799L188.71 83.6499Z" fill="#BB464B"/>
<path d="M111.24 88.3101L76.55 108.34V148.41L111.24 128.38L145.94 148.41V108.34L111.24 88.3101Z" fill="#BB464B"/>
<path d="M188.71 83.6499L145.94 108.34V148.41L111.24 168.44V217.83L188.71 173.1V83.6499Z" fill="#E0DED8"/>
<path d="M33.77 83.6499L76.55 108.34V148.41L111.24 168.44V217.83L33.77 173.1V83.6499Z" fill="#D5D2CA"/>
<path d="M144.62 19.6499L187.39 44.3499L154.02 63.6199L188.71 83.6499L145.94 108.34L111.24 88.3099L76.55 108.34L33.77 83.6499L144.62 19.6499Z" fill="white"/>
</svg>
