<?xml version="1.0" encoding="utf-8"?>
<!-- Generator: Adobe Illustrator 23.0.3, SVG Export Plug-In . SVG Version: 6.00 Build 0)  -->
<svg version="1.1" id="Capa_1" xmlns="http://www.w3.org/2000/svg" x="0px" y="0px"
     viewBox="0 0 402 402" style="enable-background:new 0 0 402 402;" xml:space="preserve">
<style type="text/css">
	.st0{fill:url(#SVGID_1_);}
</style>
<g>
	<linearGradient id="SVGID_1_" gradientUnits="userSpaceOnUse" x1="0" y1="200.997" x2="401.993" y2="200.997">
		<stop  offset="0" style="stop-color:#1245C6"/>
		<stop  offset="1" style="stop-color:#9909B7"/>
	</linearGradient>
	<path class="st0" d="M394,154.2c-5.3-5.3-11.8-8-19.4-8H255.8V27.4c0-7.6-2.7-14.1-8-19.4c-5.3-5.3-11.8-8-19.4-8h-54.8
		c-7.6,0-14.1,2.7-19.4,8s-8,11.8-8,19.4v118.8H27.4c-7.6,0-14.1,2.7-19.4,8S0,166,0,173.6v54.8c0,7.6,2.7,14.1,8,19.4
		c5.3,5.3,11.8,8,19.4,8h118.8v118.8c0,7.6,2.7,14.1,8,19.4c5.3,5.3,11.8,8,19.4,8h54.8c7.6,0,14.1-2.7,19.4-8
		c5.3-5.3,8-11.8,8-19.4V255.8h118.8c7.6,0,14.1-2.7,19.4-8c5.3-5.3,8-11.8,8-19.4v-54.8C402,166,399.3,159.5,394,154.2z"/>
</g>
</svg>
